<svg height='100px' width='100px'  fill="#FFFFFF" xmlns="http://www.w3.org/2000/svg" xmlns:xlink="http://www.w3.org/1999/xlink" version="1.1" x="0px" y="0px" viewBox="0 0 64 64" style="enable-background:new 0 0 64 64;" xml:space="preserve"><style type="text/css">
	.st0{display:none;}
	.st1{display:inline;}
</style><g><g><path d="M35.5,6.8c-0.4-0.2-0.8-0.2-1.2,0.1L14.9,21.2H1.1c-0.6,0-1.1,0.5-1.1,1.1v19.4c0,0.6,0.5,1.1,1.1,1.1h13.8l19.5,14.3    c0.2,0.1,0.4,0.2,0.7,0.2c0.2,0,0.3,0,0.5-0.1c0.4-0.2,0.6-0.6,0.6-1V7.8C36.1,7.4,35.9,7,35.5,6.8z"></path><path d="M59.1,32l4.6-4.6c0.4-0.4,0.4-1.1,0-1.6l-5.3-5.4c-0.2-0.2-0.5-0.3-0.8-0.3s-0.6,0.1-0.8,0.3l-4.6,4.6l-4.6-4.6    c-0.2-0.2-0.5-0.3-0.8-0.3c-0.3,0-0.6,0.1-0.8,0.3l-5.4,5.4c-0.2,0.2-0.3,0.5-0.3,0.8s0.1,0.6,0.3,0.8l4.6,4.6l-4.6,4.6    c-0.2,0.2-0.3,0.5-0.3,0.8s0.1,0.6,0.3,0.8l5.4,5.4c0.4,0.4,1.1,0.4,1.6,0l4.6-4.6l4.6,4.6c0.2,0.2,0.5,0.3,0.8,0.3    s0.6-0.1,0.8-0.3l5.3-5.4c0.4-0.4,0.4-1.1,0-1.6L59.1,32z"></path></g></g></svg>