<svg height='100px' width='100px'  fill="#FFFFFF" xmlns="http://www.w3.org/2000/svg" xmlns:xlink="http://www.w3.org/1999/xlink" version="1.1" x="0px" y="0px" viewBox="0 0 64 64" style="enable-background:new 0 0 64 64;" xml:space="preserve"><style type="text/css">
	.st0{display:none;}
	.st1{display:inline;}
</style><g><g><path d="M36.1,22.5V7.8c0-0.4-0.2-0.8-0.6-1c-0.4-0.2-0.8-0.1-1.2,0.1L14.9,21.2H1.1c-0.6,0-1.1,0.5-1.1,1.1v19.4    c0,0.6,0.5,1.1,1.1,1.1h13.8l19.5,14.3c0.2,0.1,0.4,0.2,0.7,0.2c0.2,0,0.3,0,0.5-0.1c0.4-0.2,0.6-0.6,0.6-1V41.5    c4.8-0.6,8.5-4.6,8.5-9.5S40.9,23.1,36.1,22.5z"></path><path d="M46.5,22.9c-0.5,0.3-0.6,1-0.3,1.5c1.5,2.2,2.4,4.8,2.4,7.5c0,2.7-0.8,5.3-2.4,7.5c-0.3,0.5-0.2,1.2,0.3,1.5    c0.2,0.1,0.4,0.2,0.6,0.2c0.3,0,0.7-0.2,0.9-0.5c1.8-2.6,2.7-5.6,2.7-8.8c0-3.2-0.9-6.2-2.7-8.8C47.7,22.7,47,22.6,46.5,22.9z"></path><path d="M53.3,19.3c-0.4-0.5-1-0.6-1.5-0.3c-0.5,0.4-0.6,1-0.3,1.5c2.4,3.4,3.6,7.3,3.6,11.4c0,4.1-1.3,8.1-3.6,11.5    c-0.4,0.5-0.2,1.2,0.3,1.5c0.2,0.1,0.4,0.2,0.6,0.2c0.3,0,0.7-0.2,0.9-0.5c2.6-3.7,4-8.1,4-12.7C57.4,27.4,56,23,53.3,19.3z"></path><path d="M58.7,15.3c-0.4-0.5-1-0.6-1.5-0.3c-0.5,0.4-0.6,1-0.3,1.5c3.2,4.5,4.9,9.8,4.9,15.4c0,5.5-1.7,10.9-4.9,15.4    c-0.4,0.5-0.2,1.2,0.3,1.5c0.2,0.1,0.4,0.2,0.6,0.2c0.3,0,0.7-0.2,0.9-0.5C62.2,43.8,64,38,64,32C64,26,62.2,20.2,58.7,15.3z"></path></g></g></svg>